<?xml version="1.0" standalone="no"?> <!DOCTYPE svg PUBLIC "-//W3C//DTD SVG 20010904//EN" "http://www.w3.org/TR/2001/REC-SVG-20010904/DTD/svg10.dtd"> <svg version="1.0" xmlns="http://www.w3.org/2000/svg" width="512.000000pt" height="452.000000pt" viewBox="0 0 512.000000 452.000000" preserveAspectRatio="xMidYMid meet"> <g transform="translate(0.000000,452.000000) scale(0.100000,-0.100000)" fill="#c0c0c0" stroke="none"> <path d="M1933 4483 c3 -10 8 -36 12 -58 3 -22 10 -53 15 -70 5 -16 17 -57 26 -90 22 -79 72 -235 84 -260 5 -11 12 -31 16 -45 14 -51 124 -283 137 -288 4 -2 7 -9 7 -16 0 -16 90 -140 138 -190 22 -23 65 -59 96 -81 421 -296 616 -458 871 -722 45 -46 86 -83 91 -83 32 0 38 96 15 225 -10 58 -37 177 -41 183 -2 1 -3 6 -4 11 0 5 -4 13 -8 17 -5 4 -8 15 -8 23 0 40 -186 437 -216 462 -8 6 -14 15 -14 19 0 12 -105 166 -160 235 -52 64 -214 224 -294 290 -88 72 -248 181 -381 260 -95 57 -362 195 -376 195 -6 0 -8 -8 -6 -17z"/> <path d="M21 3948 c9 -32 59 -138 69 -148 3 -3 14 -18 24 -35 53 -84 240 -253 426 -387 109 -78 346 -235 390 -258 14 -7 27 -16 30 -19 3 -3 14 -11 25 -18 116 -70 183 -110 200 -118 26 -14 35 -51 9 -41 -22 9 -437 9 -502 1 -86 -11 -130 -27 -124 -44 11 -31 107 -147 180 -218 74 -73 223 -190 271 -214 14 -8 40 -23 56 -35 17 -12 46 -29 65 -39 183 -92 240 -118 335 -153 61 -21 135 -47 165 -56 144 -42 147 -44 120 -50 -14 -4 -70 -11 -125 -16 -173 -16 -279 -30 -305 -40 -14 -5 -50 -12 -80 -16 -30 -3 -59 -10 -65 -14 -5 -4 -19 -9 -29 -11 -16 -3 -7 -19 55 -94 113 -138 133 -160 273 -300 120 -120 301 -265 332 -265 7 0 14 -3 16 -7 4 -10 80 -46 143 -68 28 -9 59 -21 70 -26 67 -29 470 -52 524 -29 14 5 81 11 148 13 110 2 124 0 150 -19 35 -26 39 -46 19 -89 -9 -18 -16 -36 -16 -39 0 -4 -5 -12 -10 -19 -6 -7 -31 -41 -57 -77 -284 -395 -701 -680 -1158 -792 -71 -17 -79 -19 -139 -28 -32 -5 -60 -11 -62 -13 -6 -6 87 -43 151 -61 28 -8 77 -21 110 -30 156 -44 488 -82 630 -73 128 8 292 25 345 37 252 54 363 87 545 164 175 73 402 211 561 341 79 64 286 274 355 360 35 44 67 82 71 83 5 2 8 8 8 14 0 6 20 39 45 75 25 35 45 67 45 70 0 4 6 14 14 22 15 18 115 213 144 281 10 25 26 65 36 90 10 25 22 52 26 60 4 9 11 31 15 50 4 19 11 41 15 50 13 23 59 229 81 355 21 122 45 239 65 310 3 11 10 38 14 60 20 100 40 156 102 282 58 119 123 195 226 268 39 28 71 53 72 56 1 16 -115 52 -225 70 -271 44 -509 34 -695 -27 -141 -47 -333 -175 -424 -282 -57 -67 -89 -107 -103 -129 -7 -10 -50 -74 -95 -143 -97 -145 -124 -167 -188 -150 -34 9 -73 43 -233 204 -106 106 -228 224 -272 262 -44 37 -82 71 -85 74 -3 4 -68 54 -145 111 -151 114 -228 165 -375 253 -52 31 -102 61 -110 66 -18 12 -381 192 -432 214 -20 9 -41 16 -47 16 -6 0 -11 5 -11 10 0 6 -7 10 -16 10 -8 0 -34 8 -57 19 -88 39 -354 130 -497 170 -41 12 -88 26 -105 31 -56 17 -203 50 -222 50 -11 0 -23 3 -27 7 -19 20 -592 111 -703 112 l-42 1 10 -32z m4453 -1055 c78 -37 88 -143 19 -207 -22 -21 -38 -26 -76 -26 -42 0 -54 5 -82 33 -19 19 -37 46 -41 61 -11 44 15 104 55 132 42 28 77 30 125 7z"/> </g> </svg>